<svg width="105" height="105" viewBox="0 0 105 105" xmlns="http://www.w3.org/2000/svg"><title>0A45AF7D-168C-418F-8F17-E86CFFAA962C</title><g fill-rule="nonzero" fill="none"><path d="M104 52.5c0 28.442-23.058 51.5-51.5 51.5S1 80.942 1 52.5 24.058 1 52.5 1 104 24.058 104 52.5z" stroke="#A6DB37" stroke-width="2" opacity=".3"/><g fill="#A6DB37"><path d="M58.59 37.029v.817h11.266v25.38H36.144v-25.38h11.265v-1.634c0-.352.033-.697.097-1.03h-12.69c-.734 0-1.327.594-1.327 1.331v27.77l-4.282 9.846c-.386.879.264 1.871 1.214 1.871H75.57c.96 0 1.61-.992 1.224-1.87l-4.282-9.847v-27.77c0-.737-.593-1.332-1.327-1.332h-12.69zM32.455 73.335l3.228-7.436h34.636l3.237 7.436h-41.1z"/><path d="M56.464 68.28h-6.937c-.734 0-1.327.596-1.327 1.333s.593 1.332 1.327 1.332h6.937c.734 0 1.327-.595 1.327-1.332 0-.737-.593-1.333-1.327-1.333z"/></g><g fill="#50E3C2"><path d="M61.17 40.361v-5.18C60.623 31.137 57.178 28 53 28s-7.624 3.137-8.17 7.181v5.18h16.34zm-15.285 1.822h14.23c.734 0 1.327.595 1.327 1.332v8.835c0 .737-.593 1.332-1.327 1.332h-14.23a1.328 1.328 0 0 1-1.327-1.332v-8.835c0-.737.593-1.332 1.327-1.332zm1.524-5.906c0-3.099 2.504-5.612 5.591-5.612s5.59 2.513 5.59 5.612v3.232H47.41v-3.232zm-2.654 3.402a4.003 4.003 0 0 0-2.851 3.836v8.835c0 2.201 1.788 3.996 3.98 3.996h14.231c2.193 0 3.981-1.795 3.981-3.996v-8.835a4.003 4.003 0 0 0-2.851-3.836h-16.49z"/><path d="M53 51.112c.734 0 1.327-.595 1.327-1.332v-1.852a1.328 1.328 0 1 0-2.654 0v1.852c0 .737.593 1.332 1.327 1.332z"/></g></g></svg>