<svg width="105" height="105" viewBox="0 0 105 105" xmlns="http://www.w3.org/2000/svg"><title>44A7111E-5B8A-4DE8-850E-149B15D32C4E</title><g fill="none" fill-rule="evenodd"><path d="M104 52.5c0 28.442-23.058 51.5-51.5 51.5S1 80.942 1 52.5 24.058 1 52.5 1 104 24.058 104 52.5z" stroke="#A6DB37" stroke-width="2" opacity=".3"/><path d="M76.86 56.667c.105.199-18.765.19-18.661 0l7.181-14.344h-1.824c-2.664 0-5.234-.708-7.502-2.05-.5.397-1.077.69-1.71.87v26.636c3.486.53 6.425 3.062 7.389 6.53A1.336 1.336 0 0 1 60.448 76H45.565a1.336 1.336 0 0 1-1.285-1.691 9.067 9.067 0 0 1 7.39-6.53V41.152a4.927 4.927 0 0 1-1.72-.87 14.727 14.727 0 0 1-7.503 2.05h-1.823l7.171 14.335c.114.227-18.756.208-18.652 0l7.172-14.334h-4.271a1.337 1.337 0 0 1-1.314-1.56c.114-.651.728-1.105 1.39-1.105h10.327c2.088 0 4.101-.538 5.906-1.55a4.906 4.906 0 0 1-.321-1.747c0-2.278 1.55-4.196 3.638-4.782v-2.258c0-.813.727-1.446 1.559-1.313.652.113 1.105.727 1.105 1.389v2.182a4.974 4.974 0 0 1 3.629 4.782c0 .614-.114 1.2-.322 1.748a12.032 12.032 0 0 0 5.906 1.55h10.422c.813 0 1.446.727 1.314 1.558-.114.652-.728 1.106-1.39 1.106H69.69l7.172 14.334zm-23.858-18a2.313 2.313 0 0 0 2.305-2.296 2.29 2.29 0 0 0-2.286-2.297H53a2.299 2.299 0 0 0-2.295 2.297 2.299 2.299 0 0 0 2.296 2.296zM44.46 55.93l-5.981-11.953-5.982 11.953H44.46zm23.065-11.953L61.544 55.93h11.962l-5.98-11.953zm-9.118 29.358a6.4 6.4 0 0 0-5.405-2.986 6.4 6.4 0 0 0-5.405 2.986h10.81z" fill="#A6DB37" fill-rule="nonzero"/><path d="M76.86 55.667c.105.199.152 1.425.133 1.671-.038 5.188-4.27 9.402-9.468 9.402-5.197 0-9.43-4.214-9.468-9.402-.01-.255.038-1.482.142-1.67H47.795c.114.226.161 1.453.142 1.67-.038 5.188-4.27 9.402-9.468 9.402-5.197 0-9.43-4.214-9.468-9.402-.01-.236.038-1.463.142-1.67H76.86zm-9.335 8.399a6.822 6.822 0 0 0 6.68-5.471H60.855a6.804 6.804 0 0 0 6.671 5.47zm-29.046 0c3.297 0 6.047-2.353 6.67-5.471H31.8a6.822 6.822 0 0 0 6.68 5.47z" fill="#FFD500"/></g></svg>