<svg width="105" height="105" viewBox="0 0 105 105" xmlns="http://www.w3.org/2000/svg"><title>71250E19-B61D-4273-8640-D9909176E470</title><g fill-rule="nonzero" fill="none"><path d="M104 52.5c0 28.442-23.058 51.5-51.5 51.5S1 80.942 1 52.5 24.058 1 52.5 1 104 24.058 104 52.5z" stroke="#A6DB37" stroke-width="2" opacity=".3"/><path d="M68.618 51.883c2.726 0 4.944-2.266 4.944-5.052v-5.873C76.104 40.326 78 37.98 78 35.186c0-2-.978-3.852-2.616-4.954l-1.528 2.271a3.22 3.22 0 0 1 1.405 2.683c0 1.768-1.375 3.206-3.067 3.206-1.694 0-3.072-1.438-3.072-3.206 0-1.087.526-2.09 1.406-2.682L69 30.232a5.951 5.951 0 0 0-2.616 4.954c0 2.794 1.896 5.138 4.44 5.77v5.875c0 1.275-.99 2.313-2.206 2.313h-3.048v-5.831c0-6.931-5.639-12.57-12.57-12.57s-12.57 5.639-12.57 12.57v5.831H37.38c-1.215 0-2.205-1.037-2.205-2.313v-5.874c2.543-.634 4.439-2.978 4.439-5.771 0-2-.978-3.852-2.616-4.954l-1.529 2.271a3.218 3.218 0 0 1 1.406 2.683c0 1.768-1.378 3.206-3.072 3.206-1.69 0-3.067-1.438-3.067-3.206 0-1.087.525-2.09 1.406-2.683l-1.53-2.271A5.955 5.955 0 0 0 28 35.186c0 2.795 1.896 5.14 4.439 5.772v5.873c0 2.786 2.218 5.052 4.943 5.052h3.048v3.524c-5.106.095-9.232 4.27-9.232 9.399 0 5.187 4.22 9.407 9.408 9.407h24.789c5.187 0 9.408-4.22 9.408-9.407 0-5.129-4.126-9.304-9.232-9.4v-3.523h3.047zm-25.45-8.57c0-5.421 4.41-9.832 9.832-9.832 5.421 0 9.832 4.41 9.832 9.832v12.085H43.169V43.313zm28.896 21.492a6.677 6.677 0 0 1-6.669 6.67h-24.79a6.677 6.677 0 0 1-6.668-6.67 6.677 6.677 0 0 1 6.669-6.67h24.789a6.677 6.677 0 0 1 6.669 6.67z" fill="#A6DB37"/><path d="M41.228 69.567a4.768 4.768 0 0 0 4.762-4.762 4.768 4.768 0 0 0-4.762-4.762 4.767 4.767 0 0 0-4.762 4.762 4.767 4.767 0 0 0 4.762 4.762zm0-7.374a2.612 2.612 0 1 1 0 5.224 2.612 2.612 0 0 1 0-5.224zM53 69.567a4.768 4.768 0 0 0 4.762-4.762A4.768 4.768 0 0 0 53 60.043a4.767 4.767 0 0 0-4.762 4.762A4.768 4.768 0 0 0 53 69.567zm0-7.374a2.612 2.612 0 1 1 0 5.224 2.612 2.612 0 0 1 0-5.224zM64.773 69.567a4.768 4.768 0 0 0 4.762-4.762 4.768 4.768 0 0 0-4.762-4.762 4.768 4.768 0 0 0-4.762 4.762 4.768 4.768 0 0 0 4.762 4.762zm0-7.374a2.612 2.612 0 1 1 0 5.224 2.612 2.612 0 0 1 0-5.224z" fill="#A6DB37"/><path d="M52.892 38.212a6.59 6.59 0 0 0-6.583 6.583 6.59 6.59 0 0 0 6.583 6.583 6.59 6.59 0 0 0 6.583-6.583 6.59 6.59 0 0 0-6.583-6.583zm0 10.427a3.844 3.844 0 1 1 0-7.688 3.844 3.844 0 0 1 0 7.688z" fill="#D0011B"/></g></svg>