<svg width="105" height="105" viewBox="0 0 105 105" xmlns="http://www.w3.org/2000/svg"><title>19C8B2A8-7A65-4617-9EB9-84C82D4DC6B3</title><g fill-rule="nonzero" fill="none"><path d="M104 52.5c0 28.442-23.058 51.5-51.5 51.5S1 80.942 1 52.5 24.058 1 52.5 1 104 24.058 104 52.5z" stroke="#A6DB37" stroke-width="2" opacity=".3"/><path d="M65.55 67.366c-1.193 0-2.271-.587-2.923-1.239a1.093 1.093 0 0 1 1.546-1.546s.39.37.923.531c.38.115.97.185 1.686-.531.716-.717.646-1.305.531-1.686a2.582 2.582 0 0 0-.538-.93 1.09 1.09 0 0 1 .003-1.542 1.097 1.097 0 0 1 1.55.003c1.146 1.146 2.091 3.61 0 5.701-.902.902-1.873 1.239-2.777 1.239z" fill="#A6DB37"/><path d="M59.32 69.444c-1.194 0-2.273-.587-2.926-1.24a1.093 1.093 0 0 1 1.547-1.546s.39.37.924.532c.38.116.97.186 1.686-.53.716-.717.646-1.305.531-1.686a2.579 2.579 0 0 0-.538-.93 1.09 1.09 0 0 1 .003-1.543 1.097 1.097 0 0 1 1.55.004c1.146 1.146 2.091 3.61 0 5.7-.901.902-1.872 1.24-2.777 1.24z" fill="#A6DB37"/><path d="M53.13 71.477c-1.18 0-2.264-.55-2.933-1.162a1.247 1.247 0 0 1-.035-.033l-2.077-2.078a1.093 1.093 0 0 1 0-1.546s1.032-.03 1.193-.565c.115-.38.164-1.64-.553-2.357-.716-.717-1.92-.696-2.3-.58-.536.161-.952.896-.956.9a1.09 1.09 0 0 1-1.543-.003 1.097 1.097 0 0 1 .004-1.55c1.146-1.146 3.61-2.091 5.7 0 1.654 1.653 1.41 3.54.669 4.823l1.385 1.385c.065.055.456.37.964.516.626.18 1.157.024 1.67-.49.528-.527.679-1.074.475-1.722a2.89 2.89 0 0 0-.508-.922 1.093 1.093 0 0 1 1.613-1.477c1.082 1.183 1.967 3.667-.033 5.667-.87.87-1.83 1.194-2.736 1.194z" fill="#A6DB37"/><path d="M57.168 68.525c-.28 0-.56-.107-.774-.32l-4.153-4.154a1.093 1.093 0 0 1 1.546-1.546l4.154 4.153a1.093 1.093 0 0 1-.773 1.867zM63.4 66.447c-.28 0-.56-.106-.773-.32l-6.233-6.232a1.093 1.093 0 0 1 1.547-1.547l6.232 6.233a1.093 1.093 0 0 1-.773 1.866zM67.555 62.292c-.28 0-.56-.106-.773-.32l-6.231-6.23a1.093 1.093 0 0 1 1.546-1.547l6.231 6.23a1.093 1.093 0 0 1-.773 1.867zM36.393 56.06c-.458 0-.885-.29-1.037-.747l-1.996-5.988-3.972-3.972a1.093 1.093 0 0 1 0-1.547l10.398-10.387a1.093 1.093 0 0 1 1.546 0l3.751 3.752c1.32-.217 4.656-.664 8.016-.308a1.093 1.093 0 0 1-.23 2.175c-3.902-.414-7.901.373-7.941.381-.359.072-.73-.04-.988-.299l-3.382-3.382-8.85 8.842 3.38 3.381c.12.12.211.267.265.428l2.077 6.232a1.093 1.093 0 0 1-1.037 1.44z" fill="#A6DB37"/><g fill="#7C6AFF"><path d="M46.707 69.443c-.905 0-1.876-.337-2.777-1.239-1.146-1.145-1.516-2.557-1.043-3.975a4.744 4.744 0 0 1 1.043-1.726 1.093 1.093 0 0 1 1.546 1.547s-.37.389-.531.923c-.115.38-.185.969.531 1.685.717.717 1.305.647 1.686.532.535-.162.925-.535.93-.538a1.09 1.09 0 0 1 1.542.003 1.097 1.097 0 0 1-.003 1.55c-.652.651-1.73 1.238-2.924 1.238z"/><path d="M50.956 65.137c-.016-.904-.37-1.87-1.287-2.755-1.166-1.125-2.584-1.471-3.993-.974-.99.35-1.637 1-1.708 1.074A1.093 1.093 0 0 0 45.542 64s.382-.377.913-.548c.378-.121.966-.202 1.695.502.729.704.669 1.294.56 1.676-.152.539-.518.935-.521.94a1.09 1.09 0 0 0 .03 1.542c.434.42 1.13.404 1.55-.03.64-.664 1.208-1.752 1.187-2.946zM69.706 63.211c-1.194 0-2.272-.587-2.924-1.239a1.093 1.093 0 0 1 1.54-1.552c.02.02.405.379.929.537.38.115.97.185 1.685-.531.717-.717.647-1.305.532-1.686a2.582 2.582 0 0 0-.538-.93l-2.053-2.052a1.05 1.05 0 0 1-.035-.035l-10.05-10.05h-7.404l-1.757 1.757c-2.144 2.144-4.077 3.01-5.91 2.647-1.62-.32-2.803-1.503-3.946-2.647a1.093 1.093 0 0 1 .004-1.55c.02-.02 2.132-2.111 6.238-6.217 3.967-3.967 12.591-2.877 14.935-2.492l3.752-3.752a1.094 1.094 0 0 1 1.547 0l10.387 10.387c.427.428.427 1.12 0 1.547l-3.973 3.972-1.782 5.347 1.6 1.6c.072.071.711.73 1.043 1.725.473 1.418.102 2.83-1.043 3.975-.902.902-1.873 1.239-2.777 1.239zm-18.77-19.725h8.309c.29 0 .568.115.773.32l9.136 9.137 1.518-4.554c.054-.162.145-.308.265-.428l3.381-3.382-8.84-8.84-3.382 3.381c-.259.259-.629.37-.987.3-.098-.02-9.854-1.903-13.546 1.79-2.67 2.67-4.499 4.489-5.457 5.442.675.632 1.34 1.141 2.04 1.28 1.062.21 2.35-.46 3.939-2.048l2.077-2.078c.205-.205.483-.32.773-.32zM36.32 63.211c-.905 0-1.876-.337-2.778-1.239-2.09-2.091-1.145-4.555 0-5.701l4.155-4.155c1.146-1.146 3.61-2.091 5.702 0 2.091 2.091 1.145 4.555 0 5.701a1.093 1.093 0 1 1-1.547-1.546s.37-.39.532-.923c.115-.38.185-.97-.532-1.686-.716-.716-1.305-.646-1.685-.531a2.582 2.582 0 0 0-.93.538l-4.148 4.148s-.37.39-.532.923c-.115.38-.185.97.532 1.686.716.716 1.305.646 1.685.531.536-.162.926-.534.93-.538a1.09 1.09 0 0 1 1.543.004 1.097 1.097 0 0 1-.003 1.55c-.652.651-1.73 1.238-2.924 1.238z"/><path d="M40.471 67.37c-1 0-1.96-.43-2.774-1.243-1.145-1.145-1.515-2.557-1.043-3.975a4.743 4.743 0 0 1 1.043-1.726l4.155-4.155c.128-.127 1.291-1.244 2.928-1.244 1 0 1.96.43 2.773 1.244 2.092 2.091 1.146 4.555 0 5.701l-4.155 4.155c-.127.127-1.29 1.244-2.927 1.244zm-1.227-5.398s-.37.39-.532.923c-.115.38-.185.97.532 1.686.406.406.807.603 1.227.603.732 0 1.375-.597 1.381-.603l4.155-4.155s.37-.39.532-.923c.115-.38.185-.97-.532-1.686-.406-.405-.807-.603-1.227-.603-.733 0-1.376.597-1.382.604l-4.154 4.154z"/></g></g></svg>