<svg width="105" height="105" viewBox="0 0 105 105" xmlns="http://www.w3.org/2000/svg"><title>7BF1DC9A-6BD9-47B6-868B-E3DB91A8EB7D</title><g fill-rule="nonzero" fill="none"><path d="M104 52.5c0 28.442-23.058 51.5-51.5 51.5S1 80.942 1 52.5 24.058 1 52.5 1 104 24.058 104 52.5z" stroke="#A6DB37" stroke-width="2" opacity=".3"/><path d="M76 51.326l-1.172-20.093a1.189 1.189 0 0 0-1.06-1.06L53.673 29c-.334 0-.614.112-.837.335L28.335 53.837a1.08 1.08 0 0 0 0 1.563L49.6 76.665a1.08 1.08 0 0 0 1.563 0l24.502-24.502c.223-.223.335-.503.335-.837zm-25.619 22.94L30.735 54.618l23.33-23.33 18.586 1.06 1.06 18.586-23.33 23.33z" fill="#A6DB37"/><path d="M61.767 46.526a1.08 1.08 0 0 0-1.562 0l-1.228 1.227a6.425 6.425 0 0 0-1.73-1.73l1.227-1.228a1.08 1.08 0 0 0 0-1.562 1.08 1.08 0 0 0-1.562 0l-1.842 1.841c-1.451-.279-2.958.056-3.963 1.117-1.786 1.786-1.507 5.023.614 7.144 1.228 1.228 1.507 3.07.614 3.963-.893.893-2.735.614-3.963-.614-1.228-1.228-1.507-3.07-.614-3.963a1.08 1.08 0 0 0 0-1.563 1.08 1.08 0 0 0-1.563 0c-1.004 1.005-1.395 2.512-1.116 3.963l-1.842 1.842a1.08 1.08 0 0 0 0 1.563 1.08 1.08 0 0 0 1.563 0l1.228-1.228a6.425 6.425 0 0 0 1.73 1.73l-1.34 1.284a1.08 1.08 0 0 0 0 1.562 1.08 1.08 0 0 0 1.563 0l1.842-1.841c1.451.279 2.958-.056 3.963-1.117 1.786-1.786 1.507-5.023-.614-7.144-1.228-1.228-1.507-3.07-.614-3.963.893-.893 2.735-.614 3.963.614 1.228 1.228 1.507 3.07.614 3.963a1.08 1.08 0 0 0 0 1.563 1.08 1.08 0 0 0 1.563 0c1.004-1.005 1.395-2.512 1.116-3.963l1.842-1.842c.558-.446.558-1.172.111-1.618z" fill="#FF7900"/><path d="M64.28 36.088a3.268 3.268 0 0 0 0 4.633 3.268 3.268 0 0 0 4.632 0 3.268 3.268 0 0 0 0-4.633 3.268 3.268 0 0 0-4.633 0zm3.069 3.07c-.39.39-1.06.39-1.507 0-.39-.39-.39-1.06 0-1.507.39-.39 1.06-.39 1.507 0 .39.39.39 1.06 0 1.507z" fill="#A6DB37"/></g></svg>