<svg width="105" height="105" viewBox="0 0 105 105" xmlns="http://www.w3.org/2000/svg"><title>E94565BF-F8C0-40C7-BEA2-429409C047C7</title><g fill="none" fill-rule="evenodd"><path d="M104 52.5c0 28.442-23.058 51.5-51.5 51.5S1 80.942 1 52.5 24.058 1 52.5 1 104 24.058 104 52.5z" stroke="#A6DB37" stroke-width="2" opacity=".3"/><path d="M72.8 39.2H60.2v-3c0-2.63-1.57-4.2-4.2-4.2H34.4c-2.618 0-5.4 1.472-5.4 4.2v20.4c0 2.624 2.776 5.4 5.4 5.4h1.8l3.24 4.32a1.2 1.2 0 0 0 1.92 0L44.6 62h1.2v1.8c0 2.624 2.776 5.4 5.4 5.4h11.4l3.24 4.32a1.2 1.2 0 0 0 1.92 0L71 69.2h1.8c2.728 0 4.2-2.782 4.2-5.4V43.4c0-2.63-1.57-4.2-4.2-4.2zm-27 4.2v16.2H44a1.2 1.2 0 0 0-.96.48L40.4 63.6l-2.64-3.52a1.2 1.2 0 0 0-.96-.48h-2.4c-1.317 0-3-1.682-3-3V36.2c0-1.228 1.79-1.8 3-1.8H56c1.313 0 1.8.488 1.8 1.8v3h-6.6c-2.618 0-5.4 1.472-5.4 4.2zm28.8 20.4c0 1.21-.572 3-1.8 3h-2.4a1.2 1.2 0 0 0-.96.48L66.8 70.8l-2.64-3.52a1.2 1.2 0 0 0-.96-.48h-12c-1.317 0-3-1.682-3-3V43.4c0-1.228 1.79-1.8 3-1.8h21.6c1.313 0 1.8.488 1.8 1.8v20.4z" fill="#A6DB37" fill-rule="nonzero"/><path fill="#53AFF5" d="M36.2 53.6h7.2v-2.4h-7.2zM36.2 47.6h7.2v-2.4h-7.2zM36.2 41.6h8.4v-2.4h-8.4zM53 60.8h8.4v-2.4H53zM53 54.8h16.8v-2.4H53zM53 48.8h16.8v-2.4H53z"/></g></svg>