<?xml version="1.0" encoding="UTF-8"?>
<svg width="56px" height="56px" viewBox="0 0 56 56" version="1.1" xmlns="http://www.w3.org/2000/svg" xmlns:xlink="http://www.w3.org/1999/xlink">
    <!-- Generator: sketchtool 42 (36781) - http://www.bohemiancoding.com/sketch -->
    <title>2E252756-34B1-4E5E-9AAD-B11CA8FAFECA</title>
    <desc>Created with sketchtool.</desc>
    <defs></defs>
    <g id="Page-1" stroke="none" stroke-width="1" fill="none" fill-rule="evenodd">
        <g id="UI_Kit" transform="translate(-131.000000, -2561.000000)" fill-rule="nonzero" fill="#A6DB37">
            <g id="Get-in-touch" transform="translate(131.000000, 2290.000000)">
                <g id="arrows" transform="translate(0.000000, 271.000000)">
                    <path d="M27.9999913,56.0000074 C43.4551124,56.0000074 55.999995,43.4551985 55.999995,28.0000111 C55.999995,12.5447426 43.4551124,1.13686838e-13 27.9999913,1.13686838e-13 C12.5448776,1.13686838e-13 -4.99997986e-06,12.5447426 -4.99997986e-06,28.0000111 C-4.99997986e-06,43.4551985 12.5448776,56.0000074 27.9999913,56.0000074 Z M27.9999913,54.5263234 C13.3412564,54.5263234 1.47367902,42.6588197 1.47367902,28.0000111 C1.47367902,13.3411877 13.3412564,1.47368402 27.9999913,1.47368402 C42.6587336,1.47368402 54.526311,13.3411877 54.526311,28.0000111 C54.526311,42.6588197 42.6587336,54.5263234 27.9999913,54.5263234 Z M28.5064228,44.2368508 L41.0327443,32.4473786 C41.3305759,32.1619997 41.3210706,31.6859261 41.0555864,31.4111577 C40.7859759,31.1318946 40.3026813,31.0999893 40.0193655,31.3654735 L28.7368333,41.9806405 L28.7368333,12.3161565 C28.7368333,11.9091987 28.4069492,11.5793145 27.9999913,11.5793145 C27.5930335,11.5793145 27.2631493,11.9091987 27.2631493,12.3161565 L27.2631493,41.9806405 L15.9802561,31.3654735 C15.6969403,31.1001367 15.1863088,31.1279156 14.9210457,31.4111577 C14.6557825,31.6945471 14.6606457,32.1389366 14.9667299,32.4473786 L27.493044,44.2368508 C27.665465,44.3769244 27.8431913,44.4302718 28.0226124,44.4210613 C28.2023281,44.4114823 28.3835176,44.3400823 28.5064228,44.2368508 Z" id="Shape" transform="translate(27.999995, 28.000004) scale(1, -1) translate(-27.999995, -28.000004) "></path>
                </g>
            </g>
        </g>
    </g>
</svg>