<svg width="20" height="18" viewBox="0 0 20 18" xmlns="http://www.w3.org/2000/svg"><title>507F0050-E5C9-44A8-A23D-5EA2A3CC59CC</title><path d="M18.258 14.224a6.07 6.07 0 0 0 1.734 3.049 8.44 8.44 0 0 1-4.024-2.005 5.76 5.76 0 0 1-1.418.188c-3.018 0-5.46-2.035-5.46-4.546 0-2.51 2.442-4.545 5.455-4.545S20 8.4 20 10.91a4.217 4.217 0 0 1-1.731 3.306l-.01.008zM7.273 10.91c.002.635.108 1.244.304 1.811a12.716 12.716 0 0 1-2.429-.448c-1.079 1.133-2.543 1.93-4.177 2.264a5.927 5.927 0 0 0 1.74-3.415C1.128 10.077.073 8.352 0 6.375 0 2.849 3.663 0 8.182 0c3.772 0 6.939 1.987 7.886 4.687a8.026 8.026 0 0 0-1.522-.141c-4.016 0-7.273 2.849-7.273 6.364z" fill-rule="nonzero" fill="#A6DB37"/></svg>