<svg width="181" height="44" viewBox="0 0 181 44" xmlns="http://www.w3.org/2000/svg"><title>927CCCB8-2F43-4079-B3CD-47373223F9C6</title><g fill="none" fill-rule="evenodd"><path d="M13.82 11.11c1.56.99 2.58 2.61 2.58 4.74 0 3.72-3.03 6.15-6.78 6.15H.8V1h8.22c3.66 0 6.63 2.37 6.63 6 0 1.74-.69 3.12-1.83 4.11zM9.02 5.5H5.6v3.72h3.42c1.08 0 1.83-.78 1.83-1.86S10.13 5.5 9.02 5.5zm.6 12c1.2 0 1.98-.84 1.98-2.01s-.78-2.01-1.98-2.01H5.6v4.02h4.02zm17.53 4.92c-4.41 0-7.95-3.45-7.95-7.92s3.54-7.92 7.95-7.92 7.95 3.45 7.95 7.92-3.54 7.92-7.95 7.92zm0-4.38c1.95 0 3.45-1.41 3.45-3.54s-1.5-3.54-3.45-3.54c-1.95 0-3.45 1.41-3.45 3.54s1.5 3.54 3.45 3.54zm18.7 4.38c-4.41 0-7.95-3.45-7.95-7.92s3.54-7.92 7.95-7.92 7.95 3.45 7.95 7.92-3.54 7.92-7.95 7.92zm0-4.38c1.95 0 3.45-1.41 3.45-3.54s-1.5-3.54-3.45-3.54c-1.95 0-3.45 1.41-3.45 3.54s1.5 3.54 3.45 3.54zm15.46-6.66c0-.54.48-.84 1.26-.84.99 0 1.59.54 2.01 1.32l3.84-2.07C67.16 7.66 65 6.58 62.57 6.58c-3.12 0-5.88 1.65-5.88 4.92 0 5.19 7.38 4.32 7.38 5.97 0 .6-.54.93-1.62.93-1.32 0-2.16-.63-2.55-1.77L56 18.85c1.17 2.43 3.45 3.57 6.45 3.57 3.24 0 6.24-1.47 6.24-4.92 0-5.55-7.38-4.41-7.38-6.12zm18.97-.06V7h-3.09V2.8l-4.5 1.35V7h-2.4v4.32h2.4v5.31c0 4.2 1.71 5.97 7.59 5.37v-4.08c-1.98.12-3.09 0-3.09-1.29v-5.31h3.09z" fill="#A6DB37"/><path d="M83.66 22h14.28v-4.62h-7.05l3.48-3.51c1.92-1.92 3.27-4.08 3.27-6.6 0-4.23-3.36-6.69-7.11-6.69-2.91 0-5.73 1.47-7.08 4.59l4.05 2.37c.57-1.32 1.62-2.28 3.09-2.28 1.41 0 2.25.9 2.25 2.22 0 1.23-.9 2.46-2.13 3.72l-7.05 7.32V22zM114.5 1v11.4L106.4 1h-3.6v21h4.8V10.6l8.1 11.4h3.6V1h-4.8zM126 5.68c1.47 0 2.7-1.23 2.7-2.7 0-1.47-1.23-2.7-2.7-2.7-1.47 0-2.7 1.23-2.7 2.7 0 1.47 1.23 2.7 2.7 2.7zM123.75 22h4.5V7h-4.5v15zm19.81-15h4.38v14.25c0 5.04-3.93 7.17-7.92 7.17-3.12 0-5.73-1.17-7.11-3.63l3.84-2.22c.57 1.05 1.44 1.89 3.42 1.89 2.1 0 3.39-1.08 3.39-3.21v-1.38c-.99 1.23-2.43 1.95-4.38 1.95-4.26 0-7.38-3.48-7.38-7.62 0-4.14 3.12-7.62 7.38-7.62 1.95 0 3.39.72 4.38 1.95V7zm-3.63 10.68c2.13 0 3.63-1.41 3.63-3.48 0-2.07-1.5-3.48-3.63-3.48s-3.63 1.41-3.63 3.48c0 2.07 1.5 3.48 3.63 3.48zm21.1-11.1c-1.98 0-3.48.72-4.29 1.83V1h-4.5v21h4.5v-8.19c0-2.13 1.14-3.09 2.79-3.09 1.44 0 2.61.87 2.61 2.73V22h4.5v-9.21c0-4.05-2.58-6.21-5.61-6.21zm18.49 4.74V7h-3.09V2.8l-4.5 1.35V7h-2.4v4.32h2.4v5.31c0 4.2 1.71 5.97 7.59 5.37v-4.08c-1.98.12-3.09 0-3.09-1.29v-5.31h3.09zM1.88 40.32V43H.915v-7.165H3.03c.453 0 .847.052 1.183.157.335.106.612.255.832.448.22.193.384.427.492.7.109.273.163.578.163.915 0 .333-.058.638-.175.915a1.969 1.969 0 0 1-.513.715c-.225.2-.503.356-.834.468a3.594 3.594 0 0 1-1.148.167H1.88zm0-.77h1.15c.277 0 .52-.037.733-.11.211-.073.39-.176.535-.307.145-.132.254-.29.327-.473.073-.183.11-.385.11-.605 0-.457-.14-.813-.423-1.07-.281-.257-.709-.385-1.282-.385H1.88v2.95zm6.914.46V43H7.83v-7.165h2.025c.453 0 .845.046 1.175.137.33.092.603.225.818.398.215.173.374.382.477.628.103.245.155.519.155.822 0 .253-.04.49-.12.71-.08.22-.196.417-.347.593a2.12 2.12 0 0 1-.555.45 2.589 2.589 0 0 1-.743.277c.127.08.233.182.32.305L13.124 43h-.86c-.177 0-.307-.068-.39-.205l-1.86-2.56a.551.551 0 0 0-.182-.172.665.665 0 0 0-.303-.053h-.735zm0-.705h1.02c.28 0 .528-.034.743-.102.215-.069.395-.165.54-.29.145-.126.254-.275.327-.448.073-.173.11-.365.11-.575 0-.427-.14-.748-.42-.965-.28-.217-.7-.325-1.26-.325h-1.06v2.705zm12.744.115c0 .537-.085 1.03-.255 1.477-.17.449-.41.835-.72 1.158-.31.323-.682.574-1.117.752a3.768 3.768 0 0 1-1.443.268 3.75 3.75 0 0 1-1.44-.268 3.223 3.223 0 0 1-1.115-.752c-.31-.323-.55-.71-.72-1.157a4.136 4.136 0 0 1-.255-1.478c0-.537.085-1.03.255-1.477.17-.449.41-.835.72-1.16.31-.326.682-.578 1.115-.758.434-.18.914-.27 1.44-.27.527 0 1.008.09 1.443.27.435.18.807.432 1.117.758.31.325.55.711.72 1.16.17.448.255.94.255 1.477zm-.995 0c0-.44-.06-.835-.18-1.185-.12-.35-.29-.646-.51-.888a2.213 2.213 0 0 0-.8-.557 2.716 2.716 0 0 0-1.05-.195c-.383 0-.731.065-1.045.195-.313.13-.58.316-.802.557a2.486 2.486 0 0 0-.513.888c-.12.35-.18.745-.18 1.185 0 .44.06.834.18 1.182.12.349.291.644.513.886.221.241.489.426.802.554.314.129.662.193 1.045.193.387 0 .737-.064 1.05-.193.314-.128.58-.313.8-.555.22-.241.39-.536.51-.885.12-.348.18-.742.18-1.182zm7.704-3.585v.79h-3.445v2.505h2.945v.79h-2.945V43h-.97v-7.165h4.415zm6.564 0v.79h-3.445v2.38h2.79v.76h-2.79v2.445h3.45l-.005.79h-4.415v-7.165h4.415zm5.934 1.12a.368.368 0 0 1-.097.113.214.214 0 0 1-.128.037c-.056 0-.123-.028-.2-.085a3.494 3.494 0 0 0-.287-.188 2.313 2.313 0 0 0-.415-.187 1.786 1.786 0 0 0-.588-.085c-.216 0-.407.03-.572.087a1.226 1.226 0 0 0-.415.238.975.975 0 0 0-.253.352c-.056.136-.085.281-.085.438 0 .2.05.366.148.498.098.131.228.244.39.337.162.093.345.174.55.242l.63.213c.215.073.425.156.63.247.205.092.388.208.55.348.162.14.292.312.39.515.098.203.147.453.147.75 0 .313-.053.607-.16.883a2.034 2.034 0 0 1-.467.717 2.187 2.187 0 0 1-.755.48 2.777 2.777 0 0 1-1.018.175c-.466 0-.89-.084-1.27-.252a2.98 2.98 0 0 1-.975-.683l.28-.46a.368.368 0 0 1 .098-.093.228.228 0 0 1 .127-.037c.044 0 .093.017.148.053.055.035.117.079.187.132.07.053.15.112.24.175a1.983 1.983 0 0 0 .7.307c.147.036.312.053.495.053.23 0 .435-.032.615-.095s.333-.152.458-.267c.125-.116.22-.253.287-.413.067-.16.1-.338.1-.535a.898.898 0 0 0-.147-.533 1.223 1.223 0 0 0-.388-.347 2.692 2.692 0 0 0-.55-.238c-.206-.065-.416-.131-.63-.2a6.683 6.683 0 0 1-.63-.237 2.035 2.035 0 0 1-.55-.35 1.608 1.608 0 0 1-.387-.538c-.098-.215-.148-.48-.148-.797a1.898 1.898 0 0 1 .578-1.365 2.1 2.1 0 0 1 .695-.44c.275-.11.59-.165.947-.165.4 0 .765.063 1.093.19.328.127.617.31.867.55l-.235.46zm6.335 0a.368.368 0 0 1-.098.113.214.214 0 0 1-.127.037c-.057 0-.124-.028-.2-.085a3.494 3.494 0 0 0-.288-.188 2.313 2.313 0 0 0-.415-.187 1.786 1.786 0 0 0-.587-.085c-.217 0-.408.03-.573.087a1.226 1.226 0 0 0-.415.238.975.975 0 0 0-.252.352c-.057.136-.085.281-.085.438 0 .2.049.366.147.498.098.131.228.244.39.337.162.093.345.174.55.242l.63.213c.215.073.425.156.63.247.205.092.388.208.55.348.162.14.292.312.39.515.098.203.148.453.148.75 0 .313-.054.607-.16.883a2.034 2.034 0 0 1-.468.717 2.187 2.187 0 0 1-.755.48 2.777 2.777 0 0 1-1.017.175c-.467 0-.89-.084-1.27-.252a2.98 2.98 0 0 1-.975-.683l.28-.46a.368.368 0 0 1 .097-.093.228.228 0 0 1 .128-.037c.043 0 .092.017.147.053.055.035.118.079.188.132.07.053.15.112.24.175a1.983 1.983 0 0 0 .7.307c.146.036.311.053.495.053.23 0 .435-.032.615-.095s.332-.152.457-.267c.125-.116.22-.253.288-.413.066-.16.1-.338.1-.535a.898.898 0 0 0-.148-.533 1.223 1.223 0 0 0-.387-.347 2.692 2.692 0 0 0-.55-.238c-.207-.065-.417-.131-.63-.2a6.683 6.683 0 0 1-.63-.237 2.035 2.035 0 0 1-.55-.35 1.608 1.608 0 0 1-.388-.538c-.098-.215-.147-.48-.147-.797a1.898 1.898 0 0 1 .577-1.365 2.1 2.1 0 0 1 .695-.44c.275-.11.59-.165.948-.165.4 0 .764.063 1.092.19.328.127.618.31.868.55l-.235.46zM50.719 43h-.97v-7.165h.97V43zm9.359-3.58c0 .537-.085 1.03-.255 1.477-.17.449-.41.835-.72 1.158-.31.323-.683.574-1.118.752a3.768 3.768 0 0 1-1.442.268 3.75 3.75 0 0 1-1.44-.268 3.223 3.223 0 0 1-1.115-.752c-.31-.323-.55-.71-.72-1.157a4.136 4.136 0 0 1-.255-1.478c0-.537.085-1.03.255-1.477.17-.449.41-.835.72-1.16.31-.326.681-.578 1.115-.758.433-.18.913-.27 1.44-.27.526 0 1.007.09 1.442.27.435.18.808.432 1.118.758.31.325.55.711.72 1.16.17.448.255.94.255 1.477zm-.995 0c0-.44-.06-.835-.18-1.185-.12-.35-.29-.646-.51-.888a2.213 2.213 0 0 0-.8-.557 2.716 2.716 0 0 0-1.05-.195c-.384 0-.732.065-1.045.195-.314.13-.581.316-.803.557a2.486 2.486 0 0 0-.512.888c-.12.35-.18.745-.18 1.185 0 .44.06.834.18 1.182.12.349.29.644.512.886.222.241.49.426.803.554.313.129.661.193 1.045.193.386 0 .736-.064 1.05-.193.313-.128.58-.313.8-.555.22-.241.39-.536.51-.885.12-.348.18-.742.18-1.182zm3.789-3.585c.043 0 .08.002.11.008a.282.282 0 0 1 .15.074c.023.022.048.05.075.083l4.145 5.395-.018-.253a3.812 3.812 0 0 1-.007-.232v-5.075h.85V43h-.485a.417.417 0 0 1-.193-.04.486.486 0 0 1-.152-.135l-4.145-5.395a6.43 6.43 0 0 1 .02.465V43h-.85v-7.165h.5zM76.74 43h-.75a.323.323 0 0 1-.21-.065.4.4 0 0 1-.12-.165l-.67-1.73h-3.215l-.67 1.73a.351.351 0 0 1-.115.16.32.32 0 0 1-.21.07h-.75l2.865-7.165h.98L76.74 43zm-4.695-2.66h2.675l-1.125-2.915a3.196 3.196 0 0 1-.108-.3c-.035-.113-.07-.235-.107-.365-.033.13-.068.252-.103.367-.035.116-.07.216-.107.303l-1.125 2.91zm7.514 1.845h3.1V43h-4.065v-7.165h.965v6.35zm14.068.12c-.36.26-.744.454-1.152.583a4.46 4.46 0 0 1-1.343.192c-.576 0-1.096-.09-1.56-.267a3.437 3.437 0 0 1-1.187-.75 3.271 3.271 0 0 1-.758-1.158 4.03 4.03 0 0 1-.265-1.485c0-.547.086-1.045.258-1.495.171-.45.416-.836.732-1.157.317-.322.702-.571 1.155-.748.454-.177.96-.265 1.52-.265.284 0 .547.02.79.063.244.041.469.101.675.18.207.078.399.173.575.285.177.111.342.237.495.377l-.275.44a.285.285 0 0 1-.167.127c-.069.019-.144.003-.228-.047a7.31 7.31 0 0 1-.275-.17 2.398 2.398 0 0 0-.377-.192 3.04 3.04 0 0 0-.525-.158 3.456 3.456 0 0 0-.718-.065c-.403 0-.768.066-1.095.197-.326.132-.605.32-.835.566a2.5 2.5 0 0 0-.53.89c-.123.348-.185.739-.185 1.172 0 .45.064.852.193 1.207.128.356.311.657.55.905.238.249.527.438.867.568.34.13.722.195 1.145.195a3.427 3.427 0 0 0 .885-.113c.134-.035.262-.078.385-.13a4.73 4.73 0 0 0 .375-.177v-1.58h-1.115a.211.211 0 0 1-.152-.055.18.18 0 0 1-.058-.135v-.55h2.2v2.75zm8.14.695h-.75a.323.323 0 0 1-.21-.065.4.4 0 0 1-.12-.165l-.67-1.73h-3.216l-.67 1.73a.351.351 0 0 1-.115.16.32.32 0 0 1-.21.07h-.75l2.865-7.165h.98L101.767 43zm-4.696-2.66h2.675l-1.125-2.915a3.196 3.196 0 0 1-.107-.3c-.035-.113-.071-.235-.108-.365-.033.13-.067.252-.102.367-.035.116-.071.216-.108.303l-1.125 2.91zm10.074.07c.04.08.079.164.115.253l.11.262c.034-.09.069-.18.105-.267.037-.089.077-.173.12-.253l2.43-4.405c.04-.077.085-.123.133-.14a.646.646 0 0 1 .202-.025h.715V43h-.85v-5.265a5.423 5.423 0 0 1 .02-.47l-2.455 4.48c-.076.15-.193.225-.35.225h-.14c-.156 0-.273-.075-.35-.225l-2.51-4.495a4.66 4.66 0 0 1 .03.485V43h-.85v-7.165h.715c.087 0 .154.008.2.025.047.017.092.063.135.14l2.475 4.41zm11.084-4.575v.79h-3.445v2.38h2.79v.76h-2.79v2.445h3.45l-.005.79h-4.415v-7.165h4.415zM123.97 43v-7.165h2.285c.44 0 .819.043 1.137.13.318.087.58.21.785.37.205.16.356.356.453.587.096.232.145.493.145.783 0 .177-.028.347-.083.51a1.515 1.515 0 0 1-.247.455c-.11.14-.25.265-.418.375-.168.11-.366.2-.592.27.523.103.918.292 1.185.565.266.273.4.633.4 1.08 0 .303-.056.58-.168.83-.112.25-.275.465-.49.645-.215.18-.479.32-.792.417-.314.099-.67.148-1.07.148h-2.53zm.965-3.265v2.495h1.55c.276 0 .515-.032.715-.095.2-.063.364-.152.492-.267.128-.116.223-.252.283-.41.06-.159.09-.333.09-.523 0-.37-.132-.662-.395-.878-.264-.215-.659-.322-1.185-.322h-1.55zm0-.69h1.28c.273 0 .51-.03.712-.09.202-.06.368-.143.5-.25a.978.978 0 0 0 .293-.387c.063-.152.095-.318.095-.498 0-.423-.127-.732-.38-.928-.254-.195-.647-.292-1.18-.292h-1.32v2.445zm13.029.375c0 .537-.085 1.03-.255 1.477-.17.449-.41.835-.72 1.158-.31.323-.683.574-1.118.752a3.768 3.768 0 0 1-1.442.268 3.75 3.75 0 0 1-1.44-.268 3.223 3.223 0 0 1-1.115-.752c-.31-.323-.55-.71-.72-1.157a4.136 4.136 0 0 1-.255-1.478c0-.537.085-1.03.255-1.477.17-.449.41-.835.72-1.16.31-.326.681-.578 1.115-.758.433-.18.913-.27 1.44-.27.526 0 1.007.09 1.442.27.435.18.808.432 1.118.758.31.325.55.711.72 1.16.17.448.255.94.255 1.477zm-.995 0c0-.44-.06-.835-.18-1.185-.12-.35-.29-.646-.51-.888a2.213 2.213 0 0 0-.8-.557 2.716 2.716 0 0 0-1.05-.195c-.384 0-.732.065-1.045.195-.314.13-.581.316-.803.557a2.486 2.486 0 0 0-.512.888c-.12.35-.18.745-.18 1.185 0 .44.06.834.18 1.182.12.349.29.644.512.886.222.241.49.426.803.554.313.129.661.193 1.045.193.386 0 .736-.064 1.05-.193.313-.128.58-.313.8-.555.22-.241.39-.536.51-.885.12-.348.18-.742.18-1.182zm9.909 0c0 .537-.085 1.03-.255 1.477-.17.449-.41.835-.72 1.158-.31.323-.683.574-1.118.752a3.768 3.768 0 0 1-1.442.268 3.75 3.75 0 0 1-1.44-.268 3.223 3.223 0 0 1-1.115-.752c-.31-.323-.55-.71-.72-1.157a4.136 4.136 0 0 1-.255-1.478c0-.537.085-1.03.255-1.477.17-.449.41-.835.72-1.16.31-.326.681-.578 1.115-.758.433-.18.913-.27 1.44-.27.526 0 1.007.09 1.442.27.435.18.808.432 1.118.758.31.325.55.711.72 1.16.17.448.255.94.255 1.477zm-.995 0c0-.44-.06-.835-.18-1.185-.12-.35-.29-.646-.51-.888a2.213 2.213 0 0 0-.8-.557 2.716 2.716 0 0 0-1.05-.195c-.384 0-.732.065-1.045.195-.314.13-.581.316-.803.557a2.486 2.486 0 0 0-.512.888c-.12.35-.18.745-.18 1.185 0 .44.06.834.18 1.182.12.349.29.644.512.886.222.241.49.426.803.554.313.129.661.193 1.045.193.386 0 .736-.064 1.05-.193.313-.128.58-.313.8-.555.22-.241.39-.536.51-.885.12-.348.18-.742.18-1.182zm6.954-2.465a.368.368 0 0 1-.098.113.214.214 0 0 1-.127.037c-.057 0-.123-.028-.2-.085a3.494 3.494 0 0 0-.288-.188 2.313 2.313 0 0 0-.415-.187 1.786 1.786 0 0 0-.587-.085c-.217 0-.408.03-.573.087a1.226 1.226 0 0 0-.415.238.975.975 0 0 0-.252.352c-.057.136-.085.281-.085.438 0 .2.05.366.147.498.099.131.229.244.39.337.162.093.345.174.55.242l.63.213c.215.073.425.156.63.247.205.092.389.208.55.348.162.14.292.312.39.515.099.203.148.453.148.75 0 .313-.053.607-.16.883a2.035 2.035 0 0 1-.468.717 2.187 2.187 0 0 1-.755.48 2.777 2.777 0 0 1-1.017.175c-.467 0-.89-.084-1.27-.252a2.98 2.98 0 0 1-.975-.683l.28-.46a.368.368 0 0 1 .097-.093.228.228 0 0 1 .128-.037c.043 0 .092.017.147.053.055.035.118.079.188.132.07.053.15.112.24.175a1.983 1.983 0 0 0 .7.307c.147.036.312.053.495.053.23 0 .435-.032.615-.095s.332-.152.457-.267c.125-.116.221-.253.288-.413.067-.16.1-.338.1-.535a.898.898 0 0 0-.148-.533 1.223 1.223 0 0 0-.387-.347 2.692 2.692 0 0 0-.55-.238c-.207-.065-.417-.131-.63-.2a6.682 6.682 0 0 1-.63-.237 2.035 2.035 0 0 1-.55-.35 1.608 1.608 0 0 1-.388-.538c-.098-.215-.147-.48-.147-.797a1.898 1.898 0 0 1 .577-1.365 2.1 2.1 0 0 1 .695-.44c.275-.11.591-.165.948-.165.4 0 .764.063 1.092.19.329.127.618.31.868.55l-.235.46zm7.514-1.12v.815h-2.32V43h-.965v-6.35h-2.325v-.815h5.61zM163.29 43h-.97v-7.165h.97V43zm3.238-7.165c.044 0 .08.002.11.008a.282.282 0 0 1 .15.074c.024.022.049.05.075.083l4.145 5.395a16.22 16.22 0 0 1-.017-.253 3.812 3.812 0 0 1-.008-.232v-5.075h.85V43h-.485a.417.417 0 0 1-.192-.04.486.486 0 0 1-.153-.135l-4.145-5.395a6.428 6.428 0 0 1 .02.465V43h-.85v-7.165h.5zm13.864 6.47c-.36.26-.744.454-1.152.583a4.46 4.46 0 0 1-1.343.192c-.576 0-1.096-.09-1.56-.267a3.437 3.437 0 0 1-1.187-.75 3.271 3.271 0 0 1-.758-1.158 4.03 4.03 0 0 1-.265-1.485c0-.547.086-1.045.258-1.495.171-.45.416-.836.732-1.157.317-.322.702-.571 1.155-.748.454-.177.96-.265 1.52-.265.284 0 .547.02.79.063.244.041.469.101.675.18.207.078.399.173.575.285.177.111.342.237.495.377l-.275.44a.285.285 0 0 1-.167.127c-.069.019-.144.003-.228-.047a7.311 7.311 0 0 1-.275-.17 2.398 2.398 0 0 0-.377-.192 3.04 3.04 0 0 0-.525-.158 3.456 3.456 0 0 0-.718-.065c-.403 0-.768.066-1.095.197-.326.132-.605.32-.835.566a2.5 2.5 0 0 0-.53.89c-.123.348-.185.739-.185 1.172 0 .45.064.852.193 1.207.128.356.311.657.55.905.238.249.527.438.867.568.34.13.722.195 1.145.195a3.427 3.427 0 0 0 .885-.113c.134-.035.262-.078.385-.13a4.73 4.73 0 0 0 .375-.177v-1.58h-1.115a.211.211 0 0 1-.152-.055.18.18 0 0 1-.058-.135v-.55h2.2v2.75z" fill="#FFF"/></g></svg>