<svg width="198" height="40" viewBox="0 0 198 40" xmlns="http://www.w3.org/2000/svg"><title>61DD1CF3-1157-44CA-BBF2-F1FD76855ED7</title><g fill-rule="nonzero" fill="none"><path d="M0 20.06h4.635V.293H0v19.765zM22.29.293v11.448c0 .293 0 .685.098 1.076L13.018.978l-.295-.293c-.1-.098-.198-.098-.296-.196-.099 0-.198-.098-.296-.098H9.073V20.06h4.044V8.71c0-.294 0-.685-.099-.979l9.271 11.742c.197.196.493.49.69.587.198.098.592.196.888.196h2.367V.294H22.29z" fill="#FFF"/><path d="M37.76 5.577c.492-.587.986-.978 1.775-1.272a6 6 0 0 1 2.367-.489c.493 0 .887 0 1.282.098.296 0 .69.098.986.196.296.098.69.195.986.293.296.098.69.294.986.587.296.196.69.294.987.196.296-.098.591-.196.789-.587l1.38-2.055c-.493-.293-.887-.685-1.38-.978-.493-.294-.987-.588-1.677-.783C45.65.587 44.96.293 44.17.196 43.48.098 42.69 0 41.803 0c-1.578 0-3.057.196-4.34.783-1.282.293-2.366 1.076-3.254 2.055-.888.88-1.578 1.957-2.17 3.13-.296 1.469-.493 2.838-.493 4.306s.197 2.838.789 4.012c.592 1.272 1.282 2.25 2.17 3.131.887.88 2.07 1.566 3.353 2.153 1.38.587 2.86.783 4.438.783 1.282 0 2.466-.098 3.65-.49 1.183-.391 2.268-.88 3.254-1.565V9.883h-7.003v2.446c0 .196.1.49.198.587.098.098.296.196.69.196h1.973v3.033c-.494.196-.888.294-1.381.49-.493.097-.888.097-1.48.097-.887 0-1.676-.098-2.465-.489-.79-.391-1.38-.685-1.973-1.272-.591-.587-.887-1.272-1.282-2.055-.296-.783-.493-1.663-.493-2.838 0-.88.099-1.76.296-2.544.69-.685 1.085-1.37 1.48-1.957zM58.075.294L50.383 19.96h3.65c.295 0 .69-.098.887-.293.197-.196.493-.49.592-.685l1.085-3.327h7.495l1.085 3.327c.099.293.296.587.592.685.197.195.591.195.986.195h3.649L62.711.293h-4.635zm-.493 12.23l1.775-5.381c.099-.294.197-.783.493-1.272.197-.294.296-.88.493-1.468.099.587.296.979.493 1.468.1.49.296.88.494 1.272l1.775 5.382h-5.523zM90.72.49c-.099 0-.296 0-.493.098-.1 0-.198.098-.296.196-.099.098-.198.195-.198.489l-5.128 9.883c-.197.293-.296.685-.592 1.076-.098.294-.296.783-.493 1.077-.099-.294-.296-.783-.493-1.077a2.603 2.603 0 0 0-.592-.978l-5.128-9.981c-.099-.196-.198-.294-.198-.49-.098-.097-.197-.097-.295-.195-.099 0-.198-.098-.494-.098H72.18v19.668h4.043V7.926c0-.294 0-.685-.099-.88l5.227 10.078c.099.293.296.587.69.685.198.097.592.195.888.195h.888c.296 0 .69-.098.888-.195.197-.098.493-.49.69-.685l5.227-10.079c0 .294-.099.685-.099.88V20.158h4.044V.294h-3.55s-.1 0-.296.195zm21.204 3.425V.294H99.202V19.96h12.821V16.44h-8.185v-4.697h6.213V8.415h-6.213V3.914h8.087z" fill="#8CDC0F"/><path d="M136.496.49c-.099 0-.296 0-.493.097-.099 0-.197.098-.296.196-.099.098-.197.195-.197.489l-5.129 9.785c-.197.294-.296.685-.591 1.076-.099.294-.296.783-.494 1.077-.098-.294-.295-.783-.493-1.077a2.603 2.603 0 0 0-.591-.978l-5.129-9.98c-.098-.197-.197-.294-.197-.49-.099-.098-.197-.098-.296-.196-.099 0-.197-.098-.493-.098H117.955V20.06h4.043V7.926c0-.294 0-.685-.098-.88l5.227 10.078c.098.293.296.587.69.685.197.097.592.195.888.195h.69c.296 0 .69-.098.888-.195.197-.098.493-.49.69-.685L136.2 7.045c0 .294-.098.685-.098.88V20.158h4.043V.294h-3.55c.197 0 0 0-.099.195zm13.807-.196l-7.692 19.667h3.649c.296 0 .69-.098.887-.293.198-.196.494-.49.592-.685l1.085-3.327h7.496l1.084 3.327c.1.293.296.587.592.685.197.195.592.195.986.195h3.55L154.84.196h-4.537v.098zm-.295 12.23l1.775-5.381c.098-.294.197-.783.493-1.272.099-.49.296-.979.493-1.566.099.587.296.979.493 1.468.099.49.296.88.493 1.272l1.776 5.382h-5.425v.098h-.098zm26.036-.195a4.114 4.114 0 0 0-.789-.587c.69-.196 1.283-.587 1.677-.88.395-.294.888-.784 1.282-1.273.395-.489.592-.978.79-1.565.196-.587.196-1.077.196-1.762 0-.782-.098-1.565-.493-2.348-.296-.685-.789-1.37-1.38-1.761-.69-.587-1.48-.881-2.466-1.272-.986-.294-2.268-.49-3.65-.49h-6.508V20.06h4.635V12.72h1.085c.296 0 .69.098.789.098.197.098.296.294.592.587l3.254 5.773c.296.588.888.881 1.677.881h4.24l-4.24-6.85c-.099-.293-.296-.586-.69-.88zm-1.479-4.599a2.603 2.603 0 0 1-.592.979c-.197.195-.69.489-1.085.685-.493.097-.986.195-1.578.195h-1.775V3.72h1.775c1.085 0 2.072.195 2.565.684.591.49.887 1.077.887 2.055-.098.49-.098.979-.197 1.272zM181.37.294v3.62h5.523v16.047h4.635V4.011h5.523V.295h-15.68zM4.734 32.192c-.197-.195-.592-.39-.888-.489-.394-.098-.789-.195-1.282-.195H.296v7.73H1.38V36.4h1.183c.493 0 .888-.098 1.282-.196a1.91 1.91 0 0 0 .888-.489c.197-.196.394-.49.592-.783.098-.293.197-.587.197-.978 0-.392-.099-.685-.197-.979-.099-.391-.296-.587-.592-.783zm-.493 2.349c-.099.196-.197.391-.296.49-.197.097-.296.293-.592.293-.197.098-.493.098-.789.098H1.381V32.29h1.183c.296 0 .592 0 .79.098l.591.294a.538.538 0 0 1 .296.489c.098.196.098.391.098.685 0 .293 0 .49-.098.685zm6.805 1.272c.296-.098.592-.196.789-.294.197-.097.394-.293.592-.489.197-.196.296-.391.394-.685.099-.196.099-.49.099-.783 0-.293-.099-.587-.197-.88-.1-.294-.296-.49-.494-.685-.197-.196-.493-.294-.887-.392-.395-.097-.79-.195-1.282-.195H7.89v7.73h1.085v-3.131h.789c.098 0 .296 0 .296.097.098 0 .098.098.197.196l1.972 2.74c.099.196.198.196.395.196h.986l-2.17-3.034a.767.767 0 0 0-.394-.391zm-.986-.587H8.975v-2.838h1.085c.591 0 1.085.098 1.38.392.296.195.395.587.395.978 0 .196 0 .391-.099.587-.098.196-.197.294-.296.49-.197.097-.295.195-.591.293-.198 0-.493.098-.79.098zm11.736-2.74c-.296-.391-.69-.587-1.184-.783a4.117 4.117 0 0 0-1.578-.293c-.591 0-1.084.098-1.577.293-.494.196-.888.49-1.184.783-.296.391-.592.783-.789 1.272-.197.49-.296.979-.296 1.566 0 .587.099 1.076.296 1.565.197.49.493.88.789 1.272.296.392.789.587 1.184.783.493.196.986.294 1.577.294.592 0 1.085-.098 1.578-.294.494-.196.888-.49 1.184-.783.296-.391.592-.782.789-1.272.197-.489.296-.978.296-1.565s-.099-1.077-.296-1.566c-.197-.49-.395-.88-.789-1.272zm-.296 4.11c-.099.391-.296.685-.592.978-.197.294-.493.49-.887.587a3.57 3.57 0 0 1-1.085.196 3.57 3.57 0 0 1-1.085-.196c-.296-.098-.592-.293-.888-.587-.197-.293-.394-.587-.591-.978-.099-.392-.198-.783-.198-1.272 0-.49.099-.881.198-1.272.098-.392.296-.685.591-.979.198-.293.494-.49.888-.587a3.57 3.57 0 0 1 1.085-.196c.394 0 .789.098 1.085.196.296.098.591.294.887.587.198.294.395.587.592.979.099.391.197.782.197 1.272 0 .489 0 .88-.197 1.272zm3.945 2.642h1.085V35.91h3.156v-.88H26.53v-2.643h3.649v-.88h-4.833v7.73h.1zm8.285-3.523h2.958v-.88H33.73v-2.447h3.649v-.88h-4.833v7.73h4.833v-.881h-3.65v-2.642zm10.06-.196c-.198-.195-.395-.293-.593-.391-.197-.098-.493-.196-.69-.294-.197-.097-.493-.195-.69-.195l-.592-.294a.767.767 0 0 1-.395-.391.744.744 0 0 1-.197-.49c0-.195 0-.293.099-.489.098-.098.098-.293.296-.391.098-.098.296-.196.394-.196.197-.098.395-.098.592-.098.197 0 .493 0 .592.098.197.098.296.098.493.196.098.098.197.098.296.196.098.097.197.097.197.097h.197l.099-.097.296-.49c-.296-.293-.592-.489-.987-.587-.394-.098-.789-.195-1.183-.195-.395 0-.69.097-1.085.195a2.15 2.15 0 0 0-.789.49c-.197.195-.394.39-.493.684-.099.294-.197.49-.197.783 0 .392.098.587.197.88.099.197.197.392.394.588.198.196.395.294.592.391.197.098.493.196.69.294.198.098.494.098.691.196l.592.293a.767.767 0 0 1 .394.392c.099.097.197.293.197.587 0 .195 0 .391-.098.587a1.352 1.352 0 0 1-.296.391c-.099.098-.296.196-.493.294-.197.098-.395.098-.69.098-.296 0-.494 0-.79-.098-.197-.098-.394-.196-.493-.294-.098-.098-.296-.196-.394-.293-.099-.098-.197-.098-.296-.098h-.197l-.099.098-.296.489c.099.196.296.293.493.391l.592.294c.197.098.395.195.69.195.296 0 .494.098.69.098a3.57 3.57 0 0 0 1.086-.195 2.15 2.15 0 0 0 .789-.49c.197-.195.394-.489.493-.782.098-.294.197-.587.197-.979 0-.293-.099-.587-.197-.783.197-.391.098-.587-.099-.685zm7.002 0c-.198-.195-.395-.293-.592-.391-.197-.098-.493-.196-.69-.294-.198-.097-.494-.195-.691-.195l-.592-.294a.767.767 0 0 1-.394-.391.744.744 0 0 1-.197-.49c0-.195 0-.293.098-.489.099-.098.099-.293.296-.391.099-.098.296-.196.395-.196.197-.098.394-.098.591-.098.198 0 .493 0 .592.098.197.098.296.098.493.196.099.098.197.098.296.196a.307.307 0 0 0 .197.097h.198l.098-.097.296-.49c-.296-.293-.592-.489-.986-.587-.395-.098-.79-.195-1.184-.195-.394 0-.69.097-1.085.195a2.15 2.15 0 0 0-.789.49c-.197.195-.394.39-.493.684-.098.294-.197.49-.197.783 0 .392.099.587.197.88.099.197.198.392.395.588.197.196.394.294.592.391.197.098.493.196.69.294.197.098.493.098.69.196l.592.293a.767.767 0 0 1 .395.392c.098.097.197.293.197.587 0 .195 0 .391-.099.587a1.352 1.352 0 0 1-.296.391c-.098.098-.296.196-.493.294-.197.098-.394.098-.69.098-.296 0-.493 0-.79-.098-.196-.098-.394-.196-.492-.294-.099-.098-.296-.196-.395-.293-.098-.098-.197-.098-.296-.098h-.197l-.099.098-.295.489c.098.196.295.293.493.391l.591.294c.198.098.395.195.69.195.297 0 .494.098.691.098a3.57 3.57 0 0 0 1.085-.195 2.15 2.15 0 0 0 .789-.49c.197-.195.395-.489.493-.782.099-.294.197-.587.197-.979 0-.293-.098-.587-.197-.783.197-.391.099-.587-.098-.685zm3.057 3.719h1.085v-7.73h-1.085v7.73zm10.355-6.752c-.295-.391-.69-.587-1.183-.783a4.117 4.117 0 0 0-1.578-.293c-.592 0-1.085.098-1.578.293-.493.196-.888.49-1.184.783-.295.391-.591.783-.789 1.272-.197.49-.295.979-.295 1.566 0 .587.098 1.076.295 1.565.198.49.494.88.79 1.272.295.392.788.587 1.183.783.493.196.986.294 1.578.294.592 0 1.085-.098 1.578-.294.493-.196.888-.49 1.183-.783.296-.391.592-.782.79-1.272.197-.489.295-.978.295-1.565s-.098-1.077-.296-1.566c-.197-.49-.493-.88-.789-1.272zm-.295 4.11c-.1.391-.296.685-.592.978-.197.294-.493.49-.888.587a3.57 3.57 0 0 1-1.085.196 3.57 3.57 0 0 1-1.085-.196c-.295-.098-.591-.293-.887-.587-.197-.293-.395-.587-.592-.978-.099-.392-.197-.783-.197-1.272 0-.49.098-.881.197-1.272.099-.392.296-.685.592-.979.197-.293.493-.49.887-.587a3.57 3.57 0 0 1 1.085-.196c.395 0 .79.098 1.085.196.296.098.592.294.888.587.197.294.394.587.592.979.098.391.197.782.197 1.272 0 .489-.099.88-.197 1.272zm9.172.195v.588l-4.438-5.676-.198-.195H67.656v7.73h.987V33.269l4.438 5.675.197.196H74.067v-7.73h-.986v5.381zm6.213-5.283l-3.057 7.73h.887c.099 0 .197 0 .197-.098.1-.098.1-.098.1-.196l.69-1.761h3.451l.69 1.761c0 .098.1.098.1.196s.098.098.197.098h.887l-3.057-7.73h-1.085zm-.888 4.794l1.184-3.033c0-.098.098-.196.098-.294 0-.098.1-.293.1-.391 0 .196.098.293.098.391 0 .098.098.196.098.294l1.184 3.033h-2.762zm8.285-4.794h-1.085v7.73h4.438v-.979h-3.353v-6.751zm12.92 4.598c0 .098 0 .098.098.196 0 0 .099.098.197.098h1.184v1.663c-.099.098-.296.098-.395.196-.098.098-.295.098-.394.098-.099 0-.296.098-.395.098h-.493c-.493 0-.887-.098-1.183-.196-.395-.098-.69-.293-.888-.587-.296-.293-.493-.587-.592-.978-.098-.392-.197-.783-.197-1.272 0-.49.099-.881.197-1.273.1-.39.296-.684.592-.978.197-.294.493-.49.888-.587.394-.098.69-.196 1.183-.196.296 0 .592 0 .79.098.197 0 .394.098.591.196.197.098.296.098.395.195.098.098.197.098.295.196.1.098.198.098.296.098.099 0 .099-.098.198-.196l.295-.489c-.197-.196-.295-.294-.493-.391l-.591-.294c-.198-.098-.494-.196-.69-.196-.297 0-.593-.097-.888-.097-.592 0-1.184.097-1.677.293-.493.196-.888.49-1.282.783-.395.391-.592.783-.79 1.272-.196.49-.295.978-.295 1.566 0 .587.099 1.076.296 1.565.197.49.493.88.789 1.272.394.392.789.587 1.282.783.493.196 1.085.293 1.677.293.493 0 .986-.097 1.479-.195.394-.098.888-.392 1.282-.587v-3.034h-2.761v.587zm7.1-4.598l-3.057 7.73h.888c.098 0 .197 0 .197-.098.099-.098.099-.098.099-.196l.69-1.761h3.452l.69 1.761c0 .098.099.098.099.196.099 0 .099.098.197.098h.888l-3.058-7.73h-1.084zm-.788 4.794l1.183-3.033c0-.098.099-.196.099-.294 0-.098.098-.293.098-.391 0 .196.099.293.099.391 0 .098.099.196.099.294l1.183 3.033h-2.761zm14.201-4.794c-.098 0-.098.097-.197.195l-2.564 4.697c-.099.098-.099.196-.099.294 0 .097-.098.195-.098.293l-.296-.587-2.663-4.697c0-.098-.099-.098-.197-.195H113.023v7.73h.987v-6.165l2.663 4.795c.098.195.197.293.394.293h.197c.099 0 .198 0 .198-.098.098 0 .098-.097.197-.195l2.564-4.697v6.164h.986v-7.73h-.887c-.099-.097-.099-.097-.198-.097zm5.228 4.207h2.958v-.88h-2.958v-2.447H129v-.88h-4.833v7.73h4.833v-.881h-3.65v-2.642zm13.807-.49c.197-.097.493-.195.592-.293.197-.098.296-.293.493-.391.098-.196.197-.294.296-.49.098-.195.098-.39.098-.586 0-.294-.098-.588-.197-.881-.099-.294-.296-.49-.493-.685-.197-.196-.493-.294-.888-.391-.394-.098-.789-.098-1.282-.098h-2.465v7.73h2.761c.395 0 .79-.098 1.184-.196.295-.098.591-.293.887-.49.197-.195.395-.39.493-.684.099-.294.198-.587.198-.88 0-.49-.1-.881-.395-1.175a3.17 3.17 0 0 0-1.282-.49zm-2.663-2.837h1.38c.593 0 .987.098 1.283.294.296.195.394.489.394.978 0 .196 0 .392-.098.49-.099.195-.197.293-.296.39-.099.099-.296.197-.493.294-.197.098-.493.098-.79.098h-1.38v-2.544zm3.156 5.088c-.099.196-.197.294-.296.392-.098.098-.296.195-.493.293-.197.098-.493.098-.789.098h-1.677v-2.642h1.677c.592 0 .986.098 1.282.294.296.195.395.489.395.88 0 .392 0 .588-.099.685zm9.961-4.99c-.296-.391-.69-.587-1.183-.783a4.117 4.117 0 0 0-1.578-.293c-.592 0-1.085.098-1.578.293-.493.196-.888.49-1.184.783-.296.391-.592.783-.789 1.272-.197.49-.296.979-.296 1.566 0 .587.099 1.076.296 1.565.197.49.493.88.79 1.272.295.392.788.587 1.183.783.493.196.986.294 1.578.294.591 0 1.084-.098 1.578-.294.493-.196.887-.49 1.183-.783.296-.391.592-.782.79-1.272.196-.489.295-.978.295-1.565s-.099-1.077-.296-1.566c-.197-.49-.493-.88-.789-1.272zm-.296 4.11c-.098.391-.296.685-.592.978-.197.294-.493.49-.887.587a3.57 3.57 0 0 1-1.085.196 3.57 3.57 0 0 1-1.085-.196c-.296-.098-.592-.293-.887-.587-.198-.293-.395-.587-.592-.978-.099-.392-.197-.783-.197-1.272 0-.49.098-.881.197-1.272.098-.392.296-.685.592-.979.197-.293.493-.49.887-.587a3.57 3.57 0 0 1 1.085-.196c.394 0 .789.098 1.085.196.296.098.592.294.887.587.198.294.395.587.592.979.099.391.197.782.197 1.272 0 .489-.098.88-.197 1.272zm10.06-4.11c-.296-.391-.69-.587-1.184-.783a4.117 4.117 0 0 0-1.578-.293c-.591 0-1.084.098-1.578.293-.493.196-.887.49-1.183.783-.296.391-.592.783-.789 1.272-.197.49-.296.979-.296 1.566 0 .587.099 1.076.296 1.565.197.49.493.88.789 1.272.296.392.789.587 1.183.783.494.196.987.294 1.578.294.592 0 1.085-.098 1.578-.294.494-.196.888-.49 1.184-.783.296-.391.592-.782.789-1.272.197-.489.296-.978.296-1.565s-.099-1.077-.296-1.566c-.197-.49-.493-.88-.79-1.272zm-.296 4.11c-.099.391-.296.685-.592.978-.197.294-.493.49-.887.587a3.57 3.57 0 0 1-1.085.196 3.57 3.57 0 0 1-1.085-.196c-.296-.098-.592-.293-.888-.587a8.592 8.592 0 0 1-.591-.978c-.1-.392-.198-.783-.198-1.272 0-.49.099-.881.198-1.272.098-.392.295-.685.591-.979.198-.293.493-.49.888-.587a3.57 3.57 0 0 1 1.085-.196c.394 0 .789.098 1.085.196.296.098.591.294.887.587.198.294.395.587.592.979.099.391.197.782.197 1.272 0 .489-.098.88-.197 1.272zm7.791-1.077c-.197-.195-.394-.293-.591-.391-.198-.098-.494-.196-.69-.294-.198-.097-.494-.195-.691-.195l-.592-.294a.767.767 0 0 1-.394-.391.744.744 0 0 1-.198-.49c0-.195 0-.293.099-.489.099-.098.099-.293.296-.391.099-.098.296-.196.394-.196.198-.098.395-.098.592-.098.197 0 .493 0 .592.098.197.098.296.098.493.196.099.098.197.098.296.196a.307.307 0 0 0 .197.097h.197l.099-.097.296-.49c-.296-.293-.592-.489-.986-.587-.395-.098-.79-.195-1.184-.195-.394 0-.69.097-1.085.195a2.15 2.15 0 0 0-.789.49c-.197.195-.394.39-.493.684-.098.294-.197.49-.197.783 0 .392.099.587.197.88.099.197.197.392.395.588.197.196.394.294.591.391.198.098.494.196.69.294.198.098.494.098.691.196l.592.293a.767.767 0 0 1 .394.392c.099.097.198.293.198.587 0 .195 0 .391-.099.587a1.352 1.352 0 0 1-.296.391c-.099.098-.296.196-.493.294-.197.098-.395.098-.69.098-.296 0-.493 0-.79-.098-.197-.098-.394-.196-.492-.294-.1-.098-.296-.196-.395-.293-.099-.098-.197-.098-.296-.098h-.197l-.099.098-.296.489c.099.196.296.293.494.391l.591.294c.198.098.395.195.69.195.297 0 .494.098.691.098a3.57 3.57 0 0 0 1.085-.195 2.15 2.15 0 0 0 .789-.49c.197-.195.394-.489.493-.782.099-.294.197-.587.197-.979 0-.293-.098-.587-.197-.783.197-.391 0-.587-.099-.685zm2.269-3.13h2.465v6.75h1.085v-6.75h2.466v-.881h-6.115v.88h.099zm8.284 6.849h1.085v-7.73h-1.085v7.73zm9.468-2.447v.588l-4.438-5.676-.197-.195H181.469v7.73h.986V33.269l4.438 5.675.197.196H187.88v-7.73h-.986v5.381zm7.89-1.37v.588c0 .097 0 .097.099.195 0 0 .098.098.197.098h1.183v1.664c-.098.097-.295.097-.394.195-.099.098-.296.098-.395.098-.098 0-.295.098-.394.098h-.493c-.493 0-.888-.098-1.184-.196-.394-.098-.69-.293-.887-.587-.296-.293-.493-.587-.592-.978-.099-.392-.197-.783-.197-1.272 0-.49.098-.881.197-1.272.099-.392.296-.685.592-.979.197-.293.493-.49.887-.587.395-.098.69-.196 1.184-.196.296 0 .592 0 .789.098.197 0 .394.098.592.196.197.098.295.098.394.196.099.097.197.097.296.195.099.098.197.098.296.098.098 0 .098-.098.197-.196l.296-.489c-.197-.196-.296-.293-.493-.391l-.592-.294c-.197-.098-.493-.195-.69-.195-.296 0-.592-.098-.888-.098-.592 0-1.183.098-1.677.293-.493.196-.887.49-1.282.783-.394.391-.591.783-.789 1.272-.197.49-.296.979-.296 1.566 0 .587.1 1.076.296 1.565.198.49.493.88.79 1.272.394.392.788.587 1.281.783.494.196 1.085.294 1.677.294.493 0 .986-.098 1.48-.196.394-.098.887-.391 1.282-.587v-3.033h-2.762z" fill="#FFF"/></g></svg>