<svg width="42" height="26" viewBox="0 0 42 26" xmlns="http://www.w3.org/2000/svg"><title>0B6AB964-34C1-4CCF-98D3-65F4C6D3816C</title><g fill-rule="nonzero" fill="#FFF" opacity=".4"><path d="M16.834 12.826v-.397h-.1l-.397 2.286v.2h.1v.099H16.735l.1.1h.099l.1-.1-.1-.299-.1-.596v-.199h.696v-.696h-.696zM10.173 13.92l-.1-.1h-.199l-.1.1h-.397l-.1.1h-.099l-.1.099H8.98l-.099.1-.1.099v.1l-.099.099V14.815l.1.1.1.099H9.576v-.1h.198l.1-.1.099-.099v-.099h.1v-.199l.099-.1v-.397z"/><path d="M41.79 12.23v-.597l-.099-.596-.099-.597-.1-.597-.198-.596-.2-.597-.198-.596-.298-.497-.299-.498-.298-.497-.298-.497-.398-.497-.398-.497-.397-.497-.398-.398-.398-.398-.497-.397-.497-.398-.497-.298-.497-.299-.497-.397-.498-.299-.596-.298-.597-.199-.596-.199-.597-.199-.596-.099-.597-.1-.597-.099H28.17l-.596.1-.597.099-.597.1-.596.198-.597.2-.596.198-.597.298-.696.299-.497.298-.497.298-.497.298-.497.398-.398.398.398.398.397.397h-1.79l-.596.696.199-.199.398-.497.397-.397.398-.398-.398-.398-.497-.398-.497-.298-.497-.298-.497-.298-.497-.299-.597-.298-.597-.199-.596-.199-.597-.199-.596-.099-.597-.1-.596-.099h-2.387l-.596.1-.597.099-.596.1-.597.198-.597.2-.596.198-.597.298-.497.299-.497.298-.497.298-.497.298-.497.398-.497.398-.398.398-.398.397-.398.497-.397.498-.398.497-.298.497-.299.497-.298.497-.298.497-.199.597-.199.596-.199.597-.1.597-.099.596-.099.597v2.386l.1.597.099.596.1.597.198.596.199.597.199.596.298.597.298.497.299.497.298.497.398.498.397.497.398.497.398.398.398.397.497.398.497.398.497.298.497.298.497.298.497.299.597.298.596.199.597.199.597.199.596.1.597.098.596.1h2.387l.596-.1.597-.099.596-.1.597-.198.596-.2.597-.198.597-.298.497-.299.497-.298.497-.298.497-.298.497-.398.398-.398-.398-.397-.199-.2h1.293l-.199.2-.398.397.398.398.497.398.497.298.498.298.497.298.497.299.596.298.597.199.597.199.596.199.597.1.596.098.597.1h2.386l.597-.1.596-.099.597-.1.596-.198.597-.2.597-.198.596-.298.497-.299.497-.298.498-.298.497-.298.497-.398.497-.398.398-.397.397-.398.398-.497.398-.497.398-.498.298-.497.298-.497.298-.497.299-.597.199-.596.198-.597.2-.596.099-.597.1-.596.099-.597v-1.193l.298-.497zM17.332 9.147l.2-.596.198-.597.298-.497.299-.497.298-.497.298-.497.299-.497.198-.2h2.884l.199.2.298.497.1.1h-4.077l-.398.695h4.972l.099.199.298.497v.1h-5.866l-.298.696h6.363l.199.397.1.398h-6.96l-.2.597.2-.498zM6.792 15.91H5.6l.696-4.077-1.69 4.077H3.412v-4.276l-.696 4.077H1.522l.995-5.469h1.988l.2 3.281 1.391-3.28h2.088l-1.392 5.667zm4.474-.895l-.199.895H9.974v-.597l-.1.1-.1.099-.099.1-.099.099-.1.1-.099.099-.1.099H8.185l-.1-.1-.099-.099-.1-.1-.099-.099-.1-.1-.098-.099-.1-.099V14.118l.1-.099.099-.099.1-.1.099-.099.1-.1.099-.099.1-.1.098-.099.1-.099.1-.1H10.47v-.497l-.1-.099-.099-.1-.1-.099h-1.79l.3-.994H10.67l.1.1.099.099.1.1.098.099.1.099.1.1.099.099.1.1V12.726l-.2 2.287zm3.68-2.585H12.856v.597l.1.099.1.099.098.1H13.454l.1.099.099.1.1.099.098.1.1.099.1.099.099.199v.895l-.1.199-.1.198-.099.1-.099.1-.1.099-.099.1-.1.099-.099.099-.1.1H10.869l.2-.895H12.757l.1-.1v-.597l-.1-.099-.1-.1-.1-.099-.099-.1-.198-.099-.2-.099-.198-.1-.199-.099-.1-.1-.099-.099-.1-.199-.099-.198V12.13l.1-.1.1-.099.099-.099.1-.1.098-.099.1-.1.1-.099.198-.1H14.547l.398 1.095zm7.556 7.854l-.398.498h-2.486l.497.596-.198-.199-.398-.497-.398-.497-.199-.298h3.779l-.2.397zm.994-1.59l-.298.497h-4.673l.397.596-.1-.1-.297-.496-.299-.497-.199-.299h5.568l-.099.299zm4.673-7.16h-1.392l-.1.1-.099.1-.1.099-.198.1-.1.099-.099.199-.1.199-.099.198-.1.2-.099.298V14.02l.1.099.1.1.099.099.1.1.099.099.099.099.1.1H27.87l.1-.1.099-.1.1-.099-.2 1.094h-1.889l-.199-.1-.199-.099-.198-.1-.2-.099-.198-.1-.199-.198-.1-.199-.099-.199h-1.988l-.1.696h2.287l-.1.497-.099.299h-7.358l.2.696h6.86l-.1.198-.198.597v.1h-6.165l.298.596-.1-.199-.297-.596-.2-.597-.198-.597-.199-.596v-.199H15.641l-.1-.1-.099-.099V14.317l.796-4.573h1.093v-.1l.1-.596h7.457l.1.597v.198H17.33l-.099.696h7.855v.299l.1-.1.099-.1.1-.099.099-.099.099-.1.1-.099.099-.1.1-.099.099-.1.1-.099.099-.099.099-.1H28.866l-.2 1.194h-.497v.696zm3.977 3.48l-.199.896h-1.093v-.597l-.1.1-.1.099-.099.1-.099.099-.1.1-.099.099-.1.099h-1.193l-.099-.1-.1-.099-.099-.1-.1-.099-.099-.1-.099-.099-.1-.099V14.118l.1-.099.1-.099.099-.1.1-.099.099-.1.1-.099.099-.1.099-.099.1-.099.099-.1h1.989v-.497l-.1-.099-.1-.1-.099-.099h-1.79l.299-.994h1.989l.099.1.1.099.099.1.099.099.1.099.099.1.1.099.099.1V12.726l-.1 2.287zm2.784-2.386h-.1l-.099.1-.099.1-.1.099-.099.1-.1.099-.099.099-.1.1v.497l-.397 2.386h-1.193l.795-4.474h1.194l-.1.795.1-.1.099-.099.1-.1.099-.099.1-.1.099-.099.1-.099.099-.1.099-.099h.696l-.199 1.094h-.398l-.497-.1zm4.077 3.282h-1.193l.1-.498-.1.1-.1.1-.1.099-.099.1-.099.099H35.925l-.2-.1-.198-.1-.199-.099-.1-.1-.099-.198-.1-.199-.099-.199-.1-.199V13.522l.1-.199.1-.198.1-.2.099-.198.099-.199.1-.199.099-.199.1-.1.099-.099.199-.099.198-.1.2-.099.198-.1h1.393l.099.1.099.1.1.099.099.1v.398l.298-1.592h1.193l-.795 5.17z"/><path d="M31.152 13.92h-.1v-.1h-.199l-.099.1h-.497l-.1.1h-.099l-.1.099h-.099v.1h-.099v.099l-.1.1v.497h.1l.1.099h.497l.099-.1h.199l.1-.1.099-.099h.1v-.099l.099-.1v-.199l.099-.198v-.199zM38.211 13.224v-.199l-.099-.1v-.199l-.1-.099h-.099v-.099h-.597l-.099.1h-.1l-.099.099v.1h-.1l-.099.099v.1l-.099.099v.099l-.1.1V13.621l-.099.1V14.317l.1.199.099.198.1.1.099.1h.497l.1-.1h.099l.1-.1.099-.099h.1v-.1l.099-.099v-.1l.099-.099v-.1l.1-.099v-.696zM24.39 13.721v-.497H22.9l-.1.696h1.59zM18.624 14.02v.398l.1.099v.099l.099.1h.1v.099h.099l.1.1h.099l.099.099h1.293l.099-.1h.1l.099-.1h.1l.198-.099-.199.995h-.1v.1h-.198l-.1.099h-1.591l-.198-.1h-.199l-.199-.1-.199-.099-.199-.1-.198-.198-.1-.1-.1-.198-.099-.299-.1-.198-.099-.299v-.298l.1-.298V13.125l.1-.2v-.198l.099-.1.1-.198.099-.2.198-.198.1-.1.199-.198.199-.1.298-.1.298-.099h1.094l.199.1h.199l.099.1.199.099.1.099.099.199.199.1v.198l.099.199v.895l-.1.298v.298h-3.082l.2-.795h1.888v-.398l-.1-.1v-.099l-.099-.099-.099-.1h-.1l-.099-.099h-.398l-.099.1h-.1l-.099.099h-.1v.1h-.099v.199l-.1.099v.1l-.099.099-.099.894"/><path d="M21.309 15.909h1.193l.397-2.287v-.1l.1-.1V13.125l.1-.099.099-.1.1-.099.099-.1h.099l.199-.099h.497v-.099l.1-.1V12.13l.099-.1v-.099l.1-.099v-.1l.099-.099v-.1l.1-.099h-.598l-.099.1h-.199v.1h-.1l-.099.099-.099.099-.1.1-.099.099-.1.1v.099l.1-.696h-1.193z"/></g></svg>