<svg width="71" height="20" viewBox="0 0 71 20" xmlns="http://www.w3.org/2000/svg"><title>294D9F22-9D38-47FE-B116-42023A0BA60C</title><g fill-rule="nonzero" fill="#FFF" opacity=".4"><path d="M62.45 4.258c-.796-.397-1.99-.596-3.78-.596-.795 0-1.69.1-2.485.199-.596.099-.696.099-1.094.198-.795.2-.894.895-.894.895l-.299.995c-.1.596.2.596.398.596.298-.1.497-.199 1.193-.398.696-.099 1.392-.298 1.989-.298.795 0 1.491.1 1.889.298.398.2.596.498.596.895v.299c0 .099-.099.198-.298.198-1.193.1-2.088.2-3.082.299-.994.1-1.89.397-2.685.696a4.177 4.177 0 0 0-1.79 1.292c-.397.597-.596 1.293-.596 2.088 0 .796.298 1.392.895 1.89.596.497 1.292.695 2.187.695.597 0 .995 0 1.293-.1.298-.098.696-.198.994-.297.298-.1.597-.299.895-.497.298-.2.497-.299.795-.498l-.099.299c-.1.397.199.696.597.696h1.889c.397 0 .795-.398.895-.696l1.491-6.264c0-.1.1-.299.1-.497v-.498c.198-.795-.2-1.491-.995-1.889zm-3.68 7.358a2.977 2.977 0 0 1-.795.398c-.398.1-.796.199-1.094.199-.497 0-.895-.1-1.193-.2-.298-.099-.398-.397-.398-.695 0-.398.1-.696.299-.995.198-.198.497-.397.894-.596.398-.1.796-.199 1.392-.298a15.74 15.74 0 0 1 1.492-.2c.1 0 .199-.099.1.2 0 .099-.299 1.193-.398 1.69 0 .298-.2.497-.299.497zM36.2 3.761c-.398 0-.994.298-1.292.796 0 0-2.983 4.872-3.282 5.369-.198.298-.298.1-.397 0 0-.1-.895-5.27-.895-5.27-.1-.398-.597-.795-1.094-.795h-1.889c-.497 0-.696.298-.597.795 0 0 1.392 7.656 1.69 9.446.1.994 0 1.193 0 1.193l-1.888 3.082c-.299.398-.1.796.298.796h2.187c.497 0 .995-.299 1.293-.796l8.352-13.323s.795-1.094.1-1.094c-.597-.199-2.586-.199-2.586-.199M9.951 6.446c-.597.397-1.491.696-2.685.696H6.77c-.497 0-.696-.299-.596-.796l.596-2.585c.1-.398.497-.795.995-.795h.696c.795 0 1.392.1 1.79.397.397.299.596.597.596 1.194.1.795-.298 1.491-.895 1.889m4.474-3.977a3.427 3.427 0 0 0-1.193-1.194c-.497-.298-1.094-.497-1.79-.596C10.746.579 9.951.48 8.957.48H4.582c-.497 0-.895.298-.994.795L.605 13.405c-.1.398.199.796.596.796H3.29c.497 0 .895-.298.995-.795l.696-2.884c.1-.397.497-.795.994-.795h.596c2.586 0 4.574-.497 5.966-1.492 1.392-.994 2.088-2.286 2.088-3.877.199-.796.1-1.392-.199-1.89M47.933 6.545c-.597.398-1.492.597-2.585.597h-.498c-.497 0-.696-.299-.596-.796l.596-2.585c.1-.398.597-.795.995-.795h.696c.795 0 1.392.1 1.79.397.397.299.596.696.596 1.194-.1.894-.398 1.491-.994 1.988m4.474-3.977a3.427 3.427 0 0 0-1.193-1.193c-.497-.298-1.094-.497-1.79-.597-.696-.1-1.491-.199-2.486-.199h-4.374c-.498 0-.895.299-.995.796l-2.983 12.13c-.099.398.2.796.597.796h2.088c.398 0 .895-.299.994-.796l.696-2.883c.1-.398.597-.796.995-.796h.596c2.585 0 4.574-.497 5.966-1.491 1.392-.994 2.088-2.287 2.088-3.878.199-.795.1-1.392-.2-1.889M24.567 4.258c-.795-.397-1.989-.596-3.778-.596-.796 0-1.69.1-2.486.199-.597.099-.696.099-1.094.198-.795.2-.895.895-.895.895l-.298.995c-.1.596.199.596.398.596.298-.1.497-.199 1.193-.398.696-.099 1.392-.298 1.989-.298.795 0 1.491.1 1.889.298.397.2.596.498.596.895v.299c0 .099-.1.198-.298.198-1.193.1-2.088.2-3.082.299-.995.1-1.89.397-2.685.696-.795.298-1.392.795-1.79 1.392-.397.596-.596 1.292-.596 2.088 0 .795.298 1.392.895 1.889.596.497 1.292.696 2.187.696.597 0 .994 0 1.293-.1.298-.1.696-.198.994-.298.298-.1.597-.298.895-.497.298-.199.497-.298.795-.497l-.1.298c-.099.398.2.696.597.696h1.89c.397 0 .795-.398.894-.696l1.492-6.264c0-.1.1-.298.1-.497v-.497c.198-.994-.2-1.591-.995-1.989zm-3.679 7.358a2.977 2.977 0 0 1-.795.398c-.398.1-.796.199-1.094.199-.497 0-.895-.1-1.193-.2-.298-.099-.398-.397-.398-.695 0-.398.1-.696.298-.995.2-.198.498-.397.895-.596.398-.1.796-.199 1.392-.298a15.74 15.74 0 0 1 1.492-.2c.1 0 .199-.099.1.2 0 .099-.3 1.193-.399 1.69-.099.298-.298.497-.298.497zM69.707.679h-1.889c-.397 0-.895.298-.994.696 0 0 0 .199-.1.497L64.14 12.809c-.099.298-.099.398-.099.497-.1.398.199.696.597.696H66.626c.397 0 .894-.298.993-.696v-.1l2.784-11.93c0-.299-.298-.597-.696-.597z"/></g></svg>