<svg width="22" height="23" viewBox="0 0 22 23" xmlns="http://www.w3.org/2000/svg"><title>54CAE023-DECD-49F1-90E4-651761D64CA9</title><path d="M21.425 13.593c.16-.72.24-1.519.24-2.239C21.665 5.517 16.948.8 11.192.8c-.64 0-1.199.08-1.839.16C8.394.4 7.275 0 6.076 0A6.074 6.074 0 0 0 0 6.077c0 1.12.32 2.159.8 3.119a9.22 9.22 0 0 0-.24 2.079 10.544 10.544 0 0 0 10.552 10.554c.64 0 1.28-.08 1.919-.16.88.48 1.839.72 2.878.72a6.074 6.074 0 0 0 6.076-6.077c.08-1.04-.16-1.919-.56-2.719zm-4.877 2.72c-.48.719-1.199 1.199-2.158 1.598-.96.4-1.999.56-3.278.56-1.519 0-2.798-.24-3.757-.8-.72-.4-1.28-.88-1.759-1.519-.48-.64-.64-1.28-.64-1.919 0-.4.16-.72.4-.96.32-.24.64-.4 1.12-.4.4 0 .639.08.959.32.24.24.48.48.64.88.16.4.4.8.639 1.04.24.24.48.48.88.72.399.16.879.24 1.518.24.88 0 1.6-.16 2.159-.56.56-.32.8-.8.8-1.28 0-.4-.16-.72-.4-.96-.32-.24-.64-.48-1.12-.64-.48-.159-1.119-.319-1.918-.479-1.12-.24-1.999-.48-2.798-.8-.72-.32-1.36-.8-1.84-1.359-.479-.56-.719-1.28-.719-2.079 0-.8.24-1.52.72-2.159.48-.64 1.119-1.12 2.078-1.44.88-.319 1.919-.479 3.118-.479.96 0 1.759.08 2.478.32.72.24 1.28.48 1.76.88.479.4.799.72 1.039 1.119.24.4.32.8.32 1.2 0 .4-.16.72-.4 1.039-.32.32-.64.48-1.12.48-.4 0-.72-.08-.879-.32-.16-.16-.4-.48-.64-.8a3.54 3.54 0 0 0-.959-1.2c-.32-.24-.96-.399-1.759-.399-.72 0-1.359.16-1.838.48-.4.32-.64.64-.64 1.04 0 .24.08.479.24.639.16.16.4.32.64.48.24.16.559.24.879.32.32.08.8.24 1.439.32.88.16 1.599.4 2.318.64.72.239 1.28.479 1.839.799.48.32.88.72 1.2 1.28.319.479.399 1.119.399 1.838-.24.88-.48 1.68-.96 2.32z" fill="#A6DB37" fill-rule="evenodd"/></svg>