<svg width="88" height="91" viewBox="0 0 88 91" xmlns="http://www.w3.org/2000/svg" xmlns:xlink="http://www.w3.org/1999/xlink"><title>7366961B-F70A-405F-A821-51231E05D40F</title><defs><linearGradient x1="50%" y1="0%" x2="50%" y2="100%" id="c"><stop stop-color="#69D7FF" offset="0%"/><stop stop-color="#53AFF5" offset="100%"/></linearGradient><path d="M68.023 24.345l-8.148-5.942-3.225-9.676C56.31 7.878 55.63 7.2 54.613 7.2H44.427L36.28 1.258c-.679-.51-1.698-.51-2.546 0l-8.149 5.941H15.4c-.849 0-1.697.51-2.037 1.528l-3.225 9.676-8.149 5.942c-.679.509-1.018 1.527-.848 2.376l3.055 9.676L.97 46.073c-.34.849 0 1.867.849 2.377l8.148 5.941 3.225 9.676c.34.849 1.019 1.528 2.037 1.528h10.186l8.148 5.941c.34.34.849.34 1.188.34.34 0 .849-.17 1.188-.34l8.149-5.941h10.185c.849 0 1.698-.51 2.037-1.528l3.225-9.676 8.149-5.941c.679-.51 1.018-1.528.848-2.377l-2.885-9.676 3.225-9.676c.17-.849-.17-1.867-.849-2.376z" id="b"/><filter x="-50%" y="-50%" width="200%" height="200%" filterUnits="objectBoundingBox" id="a"><feOffset dy="2" in="SourceAlpha" result="shadowOffsetOuter1"/><feGaussianBlur stdDeviation="5" in="shadowOffsetOuter1" result="shadowBlurOuter1"/><feColorMatrix values="0 0 0 0 0 0 0 0 0 0 0 0 0 0 0 0 0 0 0.45 0" in="shadowBlurOuter1"/></filter><filter x="-50%" y="-50%" width="200%" height="200%" filterUnits="objectBoundingBox" id="d"><feGaussianBlur stdDeviation="1" in="SourceAlpha" result="shadowBlurInner1"/><feOffset dy="1" in="shadowBlurInner1" result="shadowOffsetInner1"/><feComposite in="shadowOffsetInner1" in2="SourceAlpha" operator="arithmetic" k2="-1" k3="1" result="shadowInnerInner1"/><feColorMatrix values="0 0 0 0 1 0 0 0 0 1 0 0 0 0 1 0 0 0 0.55 0" in="shadowInnerInner1"/></filter></defs><g transform="translate(9 7)" fill-rule="nonzero" fill="none"><use fill="#000" filter="url(#a)" xlink:href="#b"/><use fill="url(#c)" fill-rule="evenodd" xlink:href="#b"/><use fill="#000" filter="url(#d)" xlink:href="#b"/></g></svg>