<svg width="50" height="17" viewBox="0 0 50 17" xmlns="http://www.w3.org/2000/svg"><title>D62C64CB-5B9D-4310-AE97-282A8AEC0FE4</title><g fill-rule="nonzero" fill="#FFF" opacity=".4"><path d="M21.576 15.985h-4.077L19.985 1.27h4.077zM14.119 1.27L10.24 11.41l-.497-2.187-1.392-6.662S8.153 1.27 6.462 1.27H.1L0 1.568s1.989.398 4.275 1.69l3.48 12.827h4.276l6.463-14.716h-4.375v-.1zM46.035 15.985h3.68L46.432 1.27h-3.281c-1.492 0-1.89 1.093-1.89 1.093l-6.064 13.622h4.275l.895-2.187h5.17l.497 2.187zm-4.474-5.27l2.088-5.468 1.193 5.468h-3.281zM35.595 4.75l.597-3.182s-1.79-.597-3.679-.597c-1.989 0-6.761.796-6.761 4.872 0 3.779 5.568 3.878 5.568 5.867 0 1.988-5.07 1.69-6.662.397l-.596 3.282s1.79.795 4.573.795c2.784 0 6.96-1.392 6.96-5.07 0-3.879-5.667-4.177-5.667-5.867 0-1.591 3.977-1.392 5.667-.497z"/><path d="M9.744 9.224L8.352 2.562S8.153 1.27 6.462 1.27H.1L0 1.568s3.082.597 6.065 2.883C8.85 6.54 9.744 9.224 9.744 9.224z"/></g></svg>